<?xml version="1.0" encoding="UTF-8"?>
<!-- Created with Inkscape (http://www.inkscape.org/) -->
<svg width="48" height="48" version="1.1" viewBox="0 0 48 48" xmlns="http://www.w3.org/2000/svg">
 <defs>
  <marker id="Dot" overflow="visible" markerHeight="0.25" markerWidth="0.25" orient="auto" preserveAspectRatio="xMidYMid" viewBox="0 0 1 1">
   <path transform="scale(.5)" d="m5 0c0 2.76-2.24 5-5 5s-5-2.24-5-5 2.3-5 5-5c2.76 0 5 2.24 5 5z" fill="context-stroke" fill-rule="evenodd"/>
  </marker>
 </defs>
 <g>
  <g fill="#0c0" fill-opacity=".5" fill-rule="evenodd" stroke="#4b4080" stroke-linejoin="round">
   <path d="m37.254 6.0276 4.7707 2.2246v24.838l-4.7707-2.2246z" points="42.02434,8.2522477 42.02434,33.090362 37.253602,30.86573 37.253602,6.0276159 "/>
   <path d="m6.0417 14.391v24.838l31.212-8.3632v-24.838z" points="6.0417479,39.228921 37.253602,30.86573 37.253602,6.0276159 6.0417479,14.390807 "/>
   <path d="m6.0417 39.229 4.7707 2.2246 31.212-8.3632-4.7707-2.2246z" points="10.812486,41.453553 42.02434,33.090362 37.253602,30.86573 6.0417479,39.228921 "/>
   <path d="m6.0417 14.391 4.7707 2.2246 31.212-8.3632-4.7707-2.2246z" points="10.812486,16.615439 42.02434,8.2522477 37.253602,6.0276159 6.0417479,14.390807 "/>
   <path d="m10.812 16.615v24.838l31.212-8.3632v-24.838z" points="10.812486,41.453553 42.02434,33.090362 42.02434,8.2522477 10.812486,16.615439 "/>
   <path d="m6.0417 14.391 4.7707 2.2246v24.838l-4.7707-2.2246z" points="10.812486,16.615439 10.812486,41.453553 6.0417479,39.228921 6.0417479,14.390807 "/>
  </g>
  <path d="m10.812 40.702 30.301-8.1259" fill="none" marker-end="url(#Dot)" marker-start="url(#Dot)" stroke="#f00" stroke-width="2.5"/>
  <g fill-rule="evenodd" stroke-width="3">
   <path d="m12.151 12.754z" points="12.150799,12.753892 12.150799,12.753892 " fill="#e9e9ff"/>
   <path d="m6.0417 14.391 6.1091-1.6369z" points="6.0417479,14.390807 12.150799,12.753892 12.150799,12.753892 6.0417479,14.390807 " fill="#353564"/>
   <path d="m6.0417 14.391 6.1091-1.6369z" points="6.0417479,14.390807 12.150799,12.753892 12.150799,12.753892 6.0417479,14.390807 " fill="#afafde"/>
   <path d="m6.0417 14.391 6.1091-1.6369z" points="6.0417479,14.390807 12.150799,12.753892 12.150799,12.753892 6.0417479,14.390807 " fill="#4d4d9f"/>
   <path d="m6.0417 14.391 6.1091-1.6369z" points="6.0417479,14.390807 12.150799,12.753892 12.150799,12.753892 6.0417479,14.390807 " fill="#d7d7ff"/>
   <path d="m6.0417 14.391z" points="6.0417479,14.390807 6.0417479,14.390807 " fill="#8686bf"/>
  </g>
 </g>
</svg>
